<mxfile host="app.diagrams.net" modified="2021-04-12T12:56:43.537Z" agent="5.0 (Windows NT 10.0; Win64; x64) AppleWebKit/537.36 (KHTML, like Gecko) Chrome/89.0.4389.114 Safari/537.36" etag="VSCqJYnjSDTyhXb7ecXZ" version="14.5.6" type="github">
  <diagram id="7TFISGoP-r5MW8f5PFLz" name="High Level">
    <mxGraphModel dx="1113" dy="1074" grid="1" gridSize="10" guides="1" tooltips="1" connect="1" arrows="1" fold="1" page="1" pageScale="1" pageWidth="1100" pageHeight="850" math="0" shadow="0">
      <root>
        <mxCell id="0" />
        <mxCell id="1" parent="0" />
        <mxCell id="EPUM04CZey8b2Z0VJkCL-7" style="edgeStyle=orthogonalEdgeStyle;rounded=0;orthogonalLoop=1;jettySize=auto;html=1;exitX=0;exitY=0.5;exitDx=0;exitDy=0;entryX=1;entryY=0.5;entryDx=0;entryDy=0;" parent="1" source="EPUM04CZey8b2Z0VJkCL-1" target="EPUM04CZey8b2Z0VJkCL-3" edge="1">
          <mxGeometry relative="1" as="geometry" />
        </mxCell>
        <mxCell id="EPUM04CZey8b2Z0VJkCL-9" style="edgeStyle=orthogonalEdgeStyle;rounded=0;orthogonalLoop=1;jettySize=auto;html=1;exitX=0.5;exitY=1;exitDx=0;exitDy=0;entryX=0.5;entryY=0;entryDx=0;entryDy=0;" parent="1" source="EPUM04CZey8b2Z0VJkCL-1" target="EPUM04CZey8b2Z0VJkCL-2" edge="1">
          <mxGeometry relative="1" as="geometry" />
        </mxCell>
        <mxCell id="EPUM04CZey8b2Z0VJkCL-10" style="edgeStyle=orthogonalEdgeStyle;rounded=0;orthogonalLoop=1;jettySize=auto;html=1;exitX=1;exitY=0.5;exitDx=0;exitDy=0;entryX=0;entryY=0.5;entryDx=0;entryDy=0;" parent="1" source="EPUM04CZey8b2Z0VJkCL-1" target="EPUM04CZey8b2Z0VJkCL-6" edge="1">
          <mxGeometry relative="1" as="geometry" />
        </mxCell>
        <mxCell id="EPUM04CZey8b2Z0VJkCL-11" style="edgeStyle=orthogonalEdgeStyle;rounded=0;orthogonalLoop=1;jettySize=auto;html=1;exitX=0;exitY=0.75;exitDx=0;exitDy=0;entryX=1;entryY=0.5;entryDx=0;entryDy=0;" parent="1" source="EPUM04CZey8b2Z0VJkCL-1" target="EPUM04CZey8b2Z0VJkCL-4" edge="1">
          <mxGeometry relative="1" as="geometry" />
        </mxCell>
        <mxCell id="EPUM04CZey8b2Z0VJkCL-1" value="Notifications" style="rounded=1;whiteSpace=wrap;html=1;" parent="1" vertex="1">
          <mxGeometry x="450" y="310" width="120" height="60" as="geometry" />
        </mxCell>
        <mxCell id="EPUM04CZey8b2Z0VJkCL-15" style="edgeStyle=orthogonalEdgeStyle;rounded=0;orthogonalLoop=1;jettySize=auto;html=1;exitX=0.5;exitY=1;exitDx=0;exitDy=0;entryX=0.5;entryY=0;entryDx=0;entryDy=0;" parent="1" source="EPUM04CZey8b2Z0VJkCL-2" target="EPUM04CZey8b2Z0VJkCL-14" edge="1">
          <mxGeometry relative="1" as="geometry" />
        </mxCell>
        <mxCell id="EPUM04CZey8b2Z0VJkCL-2" value="Email" style="rounded=1;whiteSpace=wrap;html=1;" parent="1" vertex="1">
          <mxGeometry x="450" y="550" width="120" height="60" as="geometry" />
        </mxCell>
        <mxCell id="EPUM04CZey8b2Z0VJkCL-8" style="edgeStyle=orthogonalEdgeStyle;rounded=0;orthogonalLoop=1;jettySize=auto;html=1;exitX=0;exitY=0.5;exitDx=0;exitDy=0;entryX=1;entryY=0.5;entryDx=0;entryDy=0;" parent="1" source="EPUM04CZey8b2Z0VJkCL-3" target="EPUM04CZey8b2Z0VJkCL-5" edge="1">
          <mxGeometry relative="1" as="geometry" />
        </mxCell>
        <mxCell id="EPUM04CZey8b2Z0VJkCL-3" value="People" style="rounded=1;whiteSpace=wrap;html=1;" parent="1" vertex="1">
          <mxGeometry x="230" y="310" width="120" height="60" as="geometry" />
        </mxCell>
        <mxCell id="EPUM04CZey8b2Z0VJkCL-4" value="Whitelist" style="rounded=1;whiteSpace=wrap;html=1;" parent="1" vertex="1">
          <mxGeometry x="230" y="430" width="120" height="60" as="geometry" />
        </mxCell>
        <mxCell id="EPUM04CZey8b2Z0VJkCL-5" value="Enterprise&lt;br&gt;Access" style="rounded=1;whiteSpace=wrap;html=1;" parent="1" vertex="1">
          <mxGeometry x="40" y="310" width="120" height="60" as="geometry" />
        </mxCell>
        <mxCell id="EPUM04CZey8b2Z0VJkCL-6" value="Uses Preferences" style="rounded=1;whiteSpace=wrap;html=1;" parent="1" vertex="1">
          <mxGeometry x="660" y="310" width="120" height="60" as="geometry" />
        </mxCell>
        <mxCell id="EPUM04CZey8b2Z0VJkCL-12" value="Eva" style="rounded=1;whiteSpace=wrap;html=1;" parent="1" vertex="1">
          <mxGeometry x="375" y="20" width="120" height="60" as="geometry" />
        </mxCell>
        <mxCell id="EPUM04CZey8b2Z0VJkCL-14" value="Enterprise Email" style="rounded=1;whiteSpace=wrap;html=1;" parent="1" vertex="1">
          <mxGeometry x="450" y="670" width="120" height="60" as="geometry" />
        </mxCell>
        <mxCell id="EPUM04CZey8b2Z0VJkCL-18" value="ARROE" style="rounded=1;whiteSpace=wrap;html=1;" parent="1" vertex="1">
          <mxGeometry x="225" y="20" width="120" height="60" as="geometry" />
        </mxCell>
        <mxCell id="EPUM04CZey8b2Z0VJkCL-19" value="System X" style="rounded=1;whiteSpace=wrap;html=1;" parent="1" vertex="1">
          <mxGeometry x="525" y="20" width="120" height="60" as="geometry" />
        </mxCell>
        <mxCell id="EPUM04CZey8b2Z0VJkCL-20" value="System Y" style="rounded=1;whiteSpace=wrap;html=1;" parent="1" vertex="1">
          <mxGeometry x="675" y="20" width="120" height="60" as="geometry" />
        </mxCell>
        <mxCell id="EPUM04CZey8b2Z0VJkCL-22" style="edgeStyle=orthogonalEdgeStyle;rounded=0;orthogonalLoop=1;jettySize=auto;html=1;exitX=0.1;exitY=0.5;exitDx=0;exitDy=0;exitPerimeter=0;entryX=0.5;entryY=0;entryDx=0;entryDy=0;" parent="1" source="EPUM04CZey8b2Z0VJkCL-21" target="EPUM04CZey8b2Z0VJkCL-1" edge="1">
          <mxGeometry relative="1" as="geometry" />
        </mxCell>
        <mxCell id="EPUM04CZey8b2Z0VJkCL-23" style="edgeStyle=orthogonalEdgeStyle;rounded=0;orthogonalLoop=1;jettySize=auto;html=1;entryX=0.5;entryY=0;entryDx=0;entryDy=0;exitX=0.1;exitY=0.5;exitDx=0;exitDy=0;exitPerimeter=0;" parent="1" source="EPUM04CZey8b2Z0VJkCL-21" target="EPUM04CZey8b2Z0VJkCL-6" edge="1">
          <mxGeometry relative="1" as="geometry">
            <mxPoint x="320" y="280" as="sourcePoint" />
          </mxGeometry>
        </mxCell>
        <mxCell id="EPUM04CZey8b2Z0VJkCL-24" style="edgeStyle=orthogonalEdgeStyle;rounded=0;orthogonalLoop=1;jettySize=auto;html=1;exitX=0.1;exitY=0.5;exitDx=0;exitDy=0;exitPerimeter=0;" parent="1" source="EPUM04CZey8b2Z0VJkCL-21" target="EPUM04CZey8b2Z0VJkCL-3" edge="1">
          <mxGeometry relative="1" as="geometry" />
        </mxCell>
        <mxCell id="EPUM04CZey8b2Z0VJkCL-21" value="" style="shape=curlyBracket;whiteSpace=wrap;html=1;rounded=1;rotation=-180;direction=south;" parent="1" vertex="1">
          <mxGeometry x="223" y="100" width="574" height="20" as="geometry" />
        </mxCell>
        <mxCell id="EMbwPZ_yD_VB_cN7iJk5-1" value="Instant Messaging" style="rounded=1;whiteSpace=wrap;html=1;" vertex="1" parent="1">
          <mxGeometry x="600" y="550" width="120" height="60" as="geometry" />
        </mxCell>
      </root>
    </mxGraphModel>
  </diagram>
</mxfile>
